<svg class="svg-snoweb svg-theme-light" height="100" preserveaspectratio="xMidYMid meet" viewbox="0 0 100 100" width="100" x="0" xmlns="http://www.w3.org/2000/svg" y="0">
 <clippath id="clip-path-202411-2615-1418-c5da2638-d650-4323-9173-6fdc21b712ee">
  <rect height="100" rx="15" ry="15" width="100" x="0" y="0">
  </rect>
 </clippath>
 <g clip-path="url(#clip-path-202411-2615-1418-c5da2638-d650-4323-9173-6fdc21b712ee)">
  <rect class="svg-fill-tertiary" height="100" rx="15" ry="15" width="100" x="0" y="0">
  </rect>
  <g transform="translate(-22.50, -22.50) scale(1.45, 1.45)">
   <circle class="svg-fill-secondary svg-builder-circle" cx="50" cy="50" r="50">
   </circle>
  </g>
 </g>
 <g transform="translate(20.00, 20.00) scale(0.60, 0.60)">
  <path class="svg-stroke-primary" d="M25.954,67.448V32.057H60.526l10.978,10.486h11.469l-4.096,4.096v13.436s-6.718,.164-7.373-7.373h-7.865l-6.882,6.882-3.764-6.882h-20.65l-6.158,6.705" fill="none" fill-rule="evenodd" stroke-linecap="round" stroke-linejoin="round" stroke-width="7">
  </path>
  <line class="svg-stroke-primary" fill="none" stroke-linecap="round" stroke-linejoin="round" stroke-width="7" x1="37.836" x2="32.344" y1="67.943" y2="52.702">
  </line>
  <line class="svg-stroke-primary" fill="none" stroke-linecap="round" stroke-linejoin="round" stroke-width="7" x1="50.582" x2="52.994" y1="67.943" y2="52.702">
  </line>
  <line class="svg-stroke-primary" fill="none" stroke-linecap="round" stroke-linejoin="round" stroke-width="7" x1="60.675" x2="56.758" y1="67.943" y2="59.584">
  </line>
  <path class="svg-stroke-primary" d="M17.031,50.237s.115-10.612,0-12.804,1.9-5.377,6.343-5.377" fill="none" fill-rule="evenodd" stroke-linecap="round" stroke-linejoin="round" stroke-width="7">
  </path>
 </g>
</svg>